<svg version="1.1" id="Layer_1" xmlns="http://www.w3.org/2000/svg" xmlns:xlink="http://www.w3.org/1999/xlink" x="0px" y="0px"
	 viewBox="0 0 1590 591" style="enable-background:new 0 0 1590 591;" xml:space="preserve">
<style type="text/css">
	.st0{fill:#8512F7;}
	.st1{fill:#FFFFFF;}
</style>
<g id="bootstrap">
	<g>
		<path class="st0" d="M1181.97,477H217.03c-29.29,0-53.03-23.74-53.03-53.03V156.03c0-29.29,23.74-53.03,53.03-53.03h964.94
			c29.29,0,53.03,23.74,53.03,53.03v267.94C1235,453.26,1211.26,477,1181.97,477z"/>
	</g>
	<g>
		<path class="st1" d="M366.38,290.54c4.24,5.45,6.36,11.67,6.36,18.66c0,10.09-3.53,18.09-10.58,23.99
			c-7.05,5.91-16.89,8.86-29.5,8.86h-56.24V221.31h54.35c12.27,0,21.87,2.81,28.81,8.43c6.94,5.62,10.41,13.24,10.41,22.88
			c0,7.11-1.87,13.02-5.59,17.72c-3.73,4.7-8.69,7.97-14.88,9.8C356.52,281.63,362.14,285.1,366.38,290.54z M305.84,270.16h19.26
			c4.82,0,8.51-1.06,11.09-3.18c2.58-2.12,3.87-5.25,3.87-9.37s-1.29-7.28-3.87-9.46c-2.58-2.18-6.28-3.27-11.09-3.27h-19.26V270.16
			z M338.95,314.97c2.69-2.24,4.04-5.47,4.04-9.72c0-4.24-1.41-7.57-4.21-9.98c-2.81-2.41-6.68-3.61-11.61-3.61h-21.33v26.66h21.67
			C332.44,318.32,336.25,317.2,338.95,314.97z"/>
		<path class="st1" d="M408.09,337.41c-7.51-4.01-13.42-9.74-17.72-17.2c-4.3-7.45-6.45-16.17-6.45-26.14
			c0-9.86,2.18-18.55,6.54-26.06c4.36-7.51,10.32-13.27,17.89-17.29c7.57-4.01,16.05-6.02,25.46-6.02c9.4,0,17.89,2.01,25.46,6.02
			c7.57,4.02,13.53,9.78,17.89,17.29c4.36,7.51,6.54,16.2,6.54,26.06c0,9.86-2.21,18.55-6.62,26.06
			c-4.42,7.51-10.44,13.27-18.06,17.29c-7.63,4.02-16.14,6.02-25.54,6.02C424.06,343.43,415.6,341.43,408.09,337.41z M447.83,311.79
			c3.96-4.13,5.93-10.03,5.93-17.72c0-7.68-1.92-13.59-5.76-17.72c-3.84-4.13-8.57-6.19-14.19-6.19c-5.74,0-10.49,2.04-14.28,6.11
			c-3.78,4.07-5.68,10.01-5.68,17.8c0,7.68,1.86,13.59,5.59,17.72c3.72,4.13,8.4,6.19,14.02,6.19
			C439.08,317.98,443.87,315.91,447.83,311.79z"/>
		<path class="st1" d="M517.66,337.41c-7.51-4.01-13.42-9.74-17.72-17.2c-4.3-7.45-6.45-16.17-6.45-26.14
			c0-9.86,2.18-18.55,6.54-26.06c4.36-7.51,10.32-13.27,17.89-17.29c7.57-4.01,16.05-6.02,25.46-6.02c9.4,0,17.89,2.01,25.46,6.02
			c7.57,4.02,13.53,9.78,17.89,17.29c4.36,7.51,6.54,16.2,6.54,26.06c0,9.86-2.21,18.55-6.62,26.06
			c-4.42,7.51-10.44,13.27-18.06,17.29c-7.63,4.02-16.14,6.02-25.54,6.02C533.62,343.43,525.17,341.43,517.66,337.41z
			 M557.39,311.79c3.96-4.13,5.93-10.03,5.93-17.72c0-7.68-1.92-13.59-5.76-17.72c-3.84-4.13-8.57-6.19-14.19-6.19
			c-5.74,0-10.49,2.04-14.28,6.11c-3.78,4.07-5.68,10.01-5.68,17.8c0,7.68,1.86,13.59,5.59,17.72c3.72,4.13,8.4,6.19,14.02,6.19
			C548.64,317.98,553.43,315.91,557.39,311.79z"/>
		<path class="st1" d="M662.39,317.12v24.94h-14.96c-10.66,0-18.98-2.61-24.94-7.83c-5.96-5.22-8.94-13.73-8.94-25.54v-38.18h-11.7
			v-24.42h11.7v-23.39h29.41v23.39h19.26v24.42h-19.26v38.53c0,2.87,0.69,4.93,2.06,6.19c1.38,1.26,3.67,1.89,6.88,1.89H662.39z"/>
		<path class="st1" d="M695.42,339.13c-6.54-2.87-11.7-6.79-15.48-11.78c-3.78-4.99-5.91-10.58-6.36-16.77h29.07
			c0.34,3.33,1.89,6.02,4.64,8.08s6.13,3.1,10.15,3.1c3.67,0,6.51-0.71,8.51-2.15c2-1.43,3.01-3.29,3.01-5.59
			c0-2.75-1.43-4.79-4.3-6.11c-2.87-1.32-7.51-2.78-13.93-4.39c-6.88-1.6-12.62-3.29-17.2-5.07c-4.59-1.78-8.54-4.58-11.87-8.43
			c-3.33-3.84-4.99-9.03-4.99-15.57c0-5.5,1.52-10.52,4.56-15.05c3.04-4.53,7.51-8.11,13.42-10.75c5.9-2.64,12.93-3.96,21.07-3.96
			c12.04,0,21.53,2.98,28.47,8.94c6.94,5.96,10.92,13.88,11.95,23.74h-27.18c-0.46-3.32-1.92-5.96-4.39-7.91
			c-2.47-1.95-5.71-2.92-9.72-2.92c-3.44,0-6.08,0.66-7.91,1.98c-1.84,1.32-2.75,3.13-2.75,5.42c0,2.75,1.46,4.82,4.39,6.19
			s7.48,2.75,13.67,4.13c7.11,1.84,12.9,3.64,17.37,5.42c4.47,1.78,8.4,4.64,11.78,8.6c3.38,3.96,5.13,9.26,5.25,15.91
			c0,5.62-1.58,10.64-4.73,15.05c-3.15,4.42-7.68,7.89-13.59,10.41c-5.91,2.52-12.76,3.78-20.55,3.78
			C709.41,343.43,701.95,342,695.42,339.13z"/>
		<path class="st1" d="M828.2,317.12v24.94h-14.96c-10.66,0-18.98-2.61-24.94-7.83c-5.96-5.22-8.94-13.73-8.94-25.54v-38.18h-11.7
			v-24.42h11.7v-23.39h29.41v23.39h19.26v24.42h-19.26v38.53c0,2.87,0.69,4.93,2.06,6.19c1.38,1.26,3.67,1.89,6.88,1.89H828.2z"/>
		<path class="st1" d="M886.85,249.61c5.16-3.04,10.89-4.56,17.2-4.56v31.13h-8.08c-7.34,0-12.84,1.58-16.51,4.73
			c-3.67,3.16-5.5,8.69-5.5,16.6v44.55h-29.41v-95.98h29.41v16C877.39,256.81,881.69,252.65,886.85,249.61z"/>
		<path class="st1" d="M917.9,267.93c3.72-7.45,8.8-13.19,15.22-17.2c6.42-4.01,13.59-6.02,21.5-6.02c6.76,0,12.7,1.38,17.8,4.13
			c5.1,2.75,9.03,6.36,11.78,10.84v-13.59h29.41v95.98H984.2v-13.59c-2.87,4.47-6.85,8.08-11.95,10.84
			c-5.1,2.75-11.04,4.13-17.8,4.13c-7.8,0-14.91-2.03-21.33-6.11c-6.42-4.07-11.5-9.86-15.22-17.37
			c-3.73-7.51-5.59-16.19-5.59-26.06C912.31,284.04,914.17,275.38,917.9,267.93z M978.1,276.7c-4.07-4.24-9.03-6.36-14.88-6.36
			c-5.85,0-10.81,2.09-14.88,6.28c-4.07,4.19-6.11,9.95-6.11,17.29c0,7.34,2.03,13.16,6.11,17.46c4.07,4.3,9.03,6.45,14.88,6.45
			c5.85,0,10.81-2.12,14.88-6.36c4.07-4.24,6.11-10.03,6.11-17.37C984.2,286.73,982.16,280.94,978.1,276.7z"/>
		<path class="st1" d="M1076.22,248.83c5.04-2.75,10.95-4.13,17.72-4.13c7.91,0,15.08,2.01,21.5,6.02
			c6.42,4.02,11.49,9.75,15.22,17.2c3.72,7.46,5.59,16.11,5.59,25.97c0,9.86-1.87,18.55-5.59,26.06c-3.73,7.51-8.8,13.3-15.22,17.37
			c-6.42,4.07-13.59,6.11-21.5,6.11c-6.65,0-12.53-1.38-17.63-4.13c-5.1-2.75-9.09-6.3-11.95-10.66v59.17h-29.41V246.08h29.41v13.59
			C1067.21,255.2,1071.17,251.59,1076.22,248.83z M1100.21,276.61c-4.07-4.18-9.09-6.28-15.05-6.28c-5.85,0-10.81,2.12-14.88,6.36
			c-4.07,4.24-6.11,10.04-6.11,17.37c0,7.34,2.03,13.13,6.11,17.37c4.07,4.24,9.03,6.36,14.88,6.36c5.85,0,10.84-2.15,14.96-6.45
			c4.13-4.3,6.19-10.12,6.19-17.46C1106.32,286.56,1104.28,280.8,1100.21,276.61z"/>
	</g>
</g>
</svg>
