<svg version="1.1" id="Layer_1" xmlns="http://www.w3.org/2000/svg" xmlns:xlink="http://www.w3.org/1999/xlink" x="0px" y="0px"
	 viewBox="0 0 779 580" style="enable-background:new 0 0 779 580;" xml:space="preserve">
<style type="text/css">
	.st0{fill:#9B5DE5;}
	.st1{fill:#FFFFFF;}
</style>
<g id="css">
	<g>
		<path class="st0" d="M638.97,477H168.03c-29.29,0-53.03-23.74-53.03-53.03V156.03c0-29.29,23.74-53.03,53.03-53.03h470.94
			c29.29,0,53.03,23.74,53.03,53.03v267.94C692,453.26,668.26,477,638.97,477z"/>
	</g>
	<g>
		<path class="st1" d="M237.83,245.15c6.16-11.15,14.74-19.84,25.76-26.07c11.01-6.23,23.5-9.34,37.46-9.34
			c17.1,0,31.75,4.52,43.93,13.55c12.18,9.03,20.32,21.35,24.43,36.95h-38.59c-2.87-6.02-6.95-10.6-12.21-13.75
			c-5.27-3.15-11.26-4.72-17.96-4.72c-10.81,0-19.57,3.77-26.27,11.29c-6.71,7.53-10.06,17.59-10.06,30.17
			c0,12.59,3.35,22.65,10.06,30.17c6.7,7.53,15.46,11.29,26.27,11.29c6.7,0,12.69-1.57,17.96-4.72c5.27-3.15,9.34-7.73,12.21-13.75
			h38.59c-4.11,15.6-12.25,27.88-24.43,36.84c-12.18,8.96-26.82,13.44-43.93,13.44c-13.96,0-26.45-3.11-37.46-9.34
			c-11.02-6.23-19.6-14.88-25.76-25.97c-6.16-11.08-9.24-23.74-9.24-37.97C228.6,268.99,231.68,256.3,237.83,245.15z"/>
		<path class="st1" d="M410.87,351.99c-7.8-3.42-13.96-8.11-18.47-14.06c-4.52-5.95-7.05-12.62-7.59-20.01h34.69
			c0.41,3.97,2.26,7.18,5.54,9.65c3.28,2.46,7.32,3.69,12.11,3.69c4.38,0,7.76-0.85,10.16-2.57c2.39-1.71,3.59-3.93,3.59-6.67
			c0-3.28-1.71-5.71-5.13-7.29c-3.42-1.57-8.96-3.32-16.63-5.23c-8.21-1.91-15.05-3.93-20.53-6.06c-5.47-2.12-10.2-5.47-14.16-10.06
			c-3.97-4.58-5.95-10.78-5.95-18.58c0-6.57,1.81-12.55,5.44-17.96c3.62-5.4,8.96-9.68,16.01-12.83c7.05-3.15,15.43-4.72,25.15-4.72
			c14.37,0,25.69,3.56,33.97,10.67c8.28,7.12,13.03,16.56,14.27,28.33H450.9c-0.55-3.97-2.29-7.11-5.23-9.44
			c-2.94-2.33-6.81-3.49-11.6-3.49c-4.11,0-7.25,0.79-9.44,2.36c-2.19,1.57-3.28,3.73-3.28,6.47c0,3.28,1.75,5.75,5.23,7.39
			s8.93,3.28,16.32,4.93c8.48,2.19,15.39,4.35,20.73,6.47c5.34,2.12,10.02,5.54,14.06,10.26c4.04,4.72,6.12,11.05,6.26,18.99
			c0,6.71-1.88,12.69-5.64,17.96c-3.77,5.27-9.17,9.41-16.22,12.42c-7.05,3.01-15.23,4.52-24.53,4.52
			C427.56,357.12,418.67,355.41,410.87,351.99z"/>
		<path class="st1" d="M525.41,351.99c-7.8-3.42-13.96-8.11-18.47-14.06c-4.52-5.95-7.05-12.62-7.59-20.01h34.69
			c0.41,3.97,2.26,7.18,5.54,9.65c3.28,2.46,7.32,3.69,12.11,3.69c4.38,0,7.76-0.85,10.16-2.57c2.39-1.71,3.59-3.93,3.59-6.67
			c0-3.28-1.71-5.71-5.13-7.29c-3.42-1.57-8.96-3.32-16.63-5.23c-8.21-1.91-15.05-3.93-20.53-6.06c-5.47-2.12-10.2-5.47-14.16-10.06
			c-3.97-4.58-5.95-10.78-5.95-18.58c0-6.57,1.81-12.55,5.44-17.96c3.62-5.4,8.96-9.68,16.01-12.83c7.05-3.15,15.43-4.72,25.15-4.72
			c14.37,0,25.69,3.56,33.97,10.67c8.28,7.12,13.03,16.56,14.27,28.33h-32.43c-0.55-3.97-2.29-7.11-5.23-9.44
			c-2.94-2.33-6.81-3.49-11.6-3.49c-4.11,0-7.25,0.79-9.44,2.36c-2.19,1.57-3.28,3.73-3.28,6.47c0,3.28,1.75,5.75,5.23,7.39
			s8.93,3.28,16.32,4.93c8.48,2.19,15.39,4.35,20.73,6.47c5.34,2.12,10.02,5.54,14.06,10.26c4.04,4.72,6.12,11.05,6.26,18.99
			c0,6.71-1.88,12.69-5.64,17.96c-3.77,5.27-9.17,9.41-16.22,12.42c-7.05,3.01-15.23,4.52-24.53,4.52
			C542.1,357.12,533.21,355.41,525.41,351.99z"/>
	</g>
</svg>
