<svg version="1.1" id="Layer_1" xmlns="http://www.w3.org/2000/svg" xmlns:xlink="http://www.w3.org/1999/xlink" x="0px" y="0px"
	 viewBox="0 0 779 580" style="enable-background:new 0 0 779 580;" xml:space="preserve">
<style type="text/css">
	.st0{fill:#118AB2;}
	.st1{fill:#FFFFFF;}
</style>
<g id="git">
	<g>
		<path class="st0" d="M638.97,477H168.03c-29.29,0-53.03-23.74-53.03-53.03V156.03c0-29.29,23.74-53.03,53.03-53.03h470.94
			c29.29,0,53.03,23.74,53.03,53.03v267.94C692,453.26,668.26,477,638.97,477z"/>
	</g>
	<g>
		<path class="st1" d="M354.2,263.95c-2.6-4.79-6.33-8.45-11.19-10.98c-4.86-2.53-10.57-3.8-17.14-3.8
			c-11.36,0-20.46,3.73-27.3,11.19c-6.84,7.46-10.26,17.42-10.26,29.87c0,13.27,3.59,23.64,10.78,31.1
			c7.18,7.46,17.07,11.19,29.66,11.19c8.62,0,15.91-2.19,21.86-6.57c5.95-4.38,10.29-10.67,13.03-18.88H319.1v-25.86h76.36v32.64
			c-2.6,8.76-7.01,16.9-13.24,24.43c-6.23,7.53-14.13,13.62-23.71,18.27c-9.58,4.65-20.39,6.98-32.43,6.98
			c-14.23,0-26.92-3.11-38.08-9.34c-11.15-6.23-19.84-14.88-26.07-25.97c-6.23-11.08-9.34-23.74-9.34-37.97
			c0-14.23,3.11-26.92,9.34-38.08c6.23-11.15,14.88-19.84,25.97-26.07c11.08-6.23,23.74-9.34,37.97-9.34
			c17.24,0,31.78,4.18,43.62,12.52c11.83,8.35,19.67,19.91,23.5,34.69H354.2z"/>
		<path class="st1" d="M417.52,230.59c-3.9-3.62-5.85-8.11-5.85-13.44c0-5.47,1.95-10.02,5.85-13.65c3.9-3.62,8.93-5.44,15.09-5.44
			c6.02,0,10.98,1.81,14.88,5.44c3.9,3.63,5.85,8.18,5.85,13.65c0,5.34-1.95,9.82-5.85,13.44c-3.9,3.63-8.86,5.44-14.88,5.44
			C426.45,236.03,421.42,234.22,417.52,230.59z M450.06,247.94v114.54h-35.1V247.94H450.06z"/>
		<path class="st1" d="M539.35,332.71v29.76h-17.86c-12.73,0-22.65-3.11-29.76-9.34c-7.12-6.23-10.67-16.39-10.67-30.48v-45.57
			H467.1v-29.15h13.96v-27.92h35.1v27.92h22.99v29.15h-22.99v45.98c0,3.42,0.82,5.89,2.46,7.39c1.64,1.51,4.38,2.26,8.21,2.26
			H539.35z"/>
	</g>
</g>
</svg>
