<svg version="1.1" id="Layer_1" xmlns="http://www.w3.org/2000/svg" xmlns:xlink="http://www.w3.org/1999/xlink" x="0px" y="0px"
	 viewBox="0 0 970 580" style="enable-background:new 0 0 970 580;" xml:space="preserve">
<style type="text/css">
	.st0{fill:#F15BB5;}
	.st1{fill:#FFFFFF;}
</style>
<g id="gsap">
	<g>
		<path class="st0" d="M836.97,477H217.03c-29.29,0-53.03-23.74-53.03-53.03V156.03c0-29.29,23.74-53.03,53.03-53.03h619.94
			c29.29,0,53.03,23.74,53.03,53.03v267.94C890,453.26,866.26,477,836.97,477z"/>
	</g>
	<g>
		<path class="st1" d="M379.2,239.95c-2.6-4.79-6.33-8.45-11.19-10.98c-4.86-2.53-10.57-3.8-17.14-3.8
			c-11.36,0-20.46,3.73-27.3,11.19c-6.84,7.46-10.26,17.42-10.26,29.87c0,13.27,3.59,23.64,10.78,31.1
			c7.18,7.46,17.07,11.19,29.66,11.19c8.62,0,15.91-2.19,21.86-6.57c5.95-4.38,10.29-10.67,13.03-18.88H344.1v-25.86h76.36v32.64
			c-2.6,8.76-7.01,16.9-13.24,24.43c-6.23,7.53-14.13,13.62-23.71,18.27c-9.58,4.65-20.39,6.98-32.43,6.98
			c-14.23,0-26.92-3.11-38.08-9.34c-11.15-6.23-19.84-14.88-26.07-25.97c-6.23-11.08-9.34-23.74-9.34-37.97
			c0-14.23,3.11-26.92,9.34-38.08c6.23-11.15,14.88-19.84,25.97-26.07c11.08-6.23,23.74-9.34,37.97-9.34
			c17.24,0,31.78,4.18,43.62,12.52c11.83,8.35,19.67,19.91,23.5,34.69H379.2z"/>
		<path class="st1" d="M459.87,334.99c-7.8-3.42-13.96-8.11-18.47-14.06c-4.52-5.95-7.05-12.62-7.59-20.01h34.69
			c0.41,3.97,2.26,7.18,5.54,9.65c3.28,2.46,7.32,3.69,12.11,3.69c4.38,0,7.76-0.85,10.16-2.57c2.39-1.71,3.59-3.93,3.59-6.67
			c0-3.28-1.71-5.71-5.13-7.29c-3.42-1.57-8.96-3.32-16.63-5.23c-8.21-1.91-15.05-3.93-20.53-6.06c-5.47-2.12-10.2-5.47-14.16-10.06
			c-3.97-4.58-5.95-10.78-5.95-18.58c0-6.57,1.81-12.55,5.44-17.96c3.62-5.4,8.96-9.68,16.01-12.83c7.05-3.15,15.43-4.72,25.15-4.72
			c14.37,0,25.69,3.56,33.97,10.67c8.28,7.12,13.03,16.56,14.27,28.33H499.9c-0.55-3.97-2.29-7.11-5.23-9.44
			c-2.94-2.33-6.81-3.49-11.6-3.49c-4.11,0-7.25,0.79-9.44,2.36c-2.19,1.57-3.28,3.73-3.28,6.47c0,3.28,1.75,5.75,5.23,7.39
			s8.93,3.28,16.32,4.93c8.48,2.19,15.39,4.35,20.73,6.47c5.34,2.12,10.02,5.54,14.06,10.26c4.04,4.72,6.12,11.05,6.26,18.99
			c0,6.71-1.88,12.69-5.64,17.96c-3.77,5.27-9.17,9.41-16.22,12.42c-7.05,3.01-15.23,4.52-24.53,4.52
			C476.56,340.12,467.67,338.41,459.87,334.99z"/>
		<path class="st1" d="M554.19,250.01c4.45-8.89,10.5-15.73,18.17-20.53c7.66-4.79,16.22-7.18,25.66-7.18
			c8.07,0,15.15,1.64,21.25,4.93c6.09,3.28,10.78,7.59,14.06,12.93v-16.22h35.1v114.54h-35.1v-16.22
			c-3.42,5.34-8.18,9.65-14.27,12.93c-6.09,3.28-13.17,4.93-21.25,4.93c-9.31,0-17.79-2.43-25.45-7.29
			c-7.67-4.86-13.72-11.77-18.17-20.73c-4.45-8.96-6.67-19.33-6.67-31.1C547.52,269.23,549.74,258.9,554.19,250.01z M626.03,260.48
			c-4.86-5.06-10.78-7.59-17.75-7.59c-6.98,0-12.9,2.5-17.76,7.49c-4.86,5-7.29,11.87-7.29,20.63c0,8.76,2.43,15.7,7.29,20.83
			c4.86,5.13,10.78,7.7,17.76,7.7c6.98,0,12.9-2.53,17.75-7.59c4.86-5.06,7.29-11.97,7.29-20.73
			C633.32,272.45,630.89,265.54,626.03,260.48z"/>
		<path class="st1" d="M743.13,227.22c6.02-3.28,13.07-4.93,21.14-4.93c9.44,0,17.99,2.4,25.66,7.18
			c7.66,4.79,13.72,11.63,18.17,20.53c4.44,8.9,6.67,19.23,6.67,31c0,11.77-2.23,22.14-6.67,31.1c-4.45,8.96-10.5,15.88-18.17,20.73
			c-7.67,4.86-16.22,7.29-25.66,7.29c-7.94,0-14.95-1.64-21.04-4.93c-6.09-3.28-10.85-7.52-14.27-12.73v70.61h-35.1V223.94h35.1
			v16.22C732.39,234.82,737.11,230.51,743.13,227.22z M771.76,260.37c-4.86-4.99-10.85-7.49-17.96-7.49
			c-6.98,0-12.9,2.53-17.75,7.59c-4.86,5.06-7.29,11.98-7.29,20.73c0,8.76,2.43,15.67,7.29,20.73c4.86,5.06,10.78,7.59,17.75,7.59
			c6.98,0,12.93-2.57,17.86-7.7c4.93-5.13,7.39-12.08,7.39-20.83C779.05,272.25,776.62,265.37,771.76,260.37z"/>
	</g>
</g>
</svg>
