<svg version="1.1" id="Layer_1" xmlns="http://www.w3.org/2000/svg" xmlns:xlink="http://www.w3.org/1999/xlink" x="0px" y="0px"
	 viewBox="0 0 885.18 510.35" style="enable-background:new 0 0 885.18 510.35;" xml:space="preserve">
<style type="text/css">
	.st0{fill:#E5383B;}
	.st1{fill:#FFFFFF;}
</style>
<g>
	<path class="st0" d="M783.45,431.82H145.19c-19.37,0-35.08-23.74-35.08-53.03V110.85c0-29.29,15.7-53.03,35.08-53.03h638.26
		c19.37,0,35.08,23.74,35.08,53.03v267.94C818.53,408.08,802.83,431.82,783.45,431.82z"/>
</g>
<g>
	<path class="st1" d="M378.95,177.4v126.36h-30.78v-52.02h-47.88v52.02h-30.78V177.4h30.78v49.5h47.88v-49.5H378.95z"/>
	<path class="st1" d="M457.07,277.66v26.1h-15.66c-11.16,0-19.86-2.73-26.1-8.19c-6.24-5.46-9.36-14.37-9.36-26.73v-39.96h-12.24
		v-25.56h12.24v-24.48h30.78v24.48h20.16v25.56h-20.16v40.32c0,3,0.72,5.16,2.16,6.48c1.44,1.32,3.84,1.98,7.2,1.98H457.07z"/>
	<path class="st1" d="M632.12,213.58c7.38,7.56,11.07,18.06,11.07,31.5v58.68h-30.6v-54.54c0-6.48-1.71-11.49-5.13-15.03
		c-3.42-3.54-8.13-5.31-14.13-5.31c-6,0-10.71,1.77-14.13,5.31c-3.42,3.54-5.13,8.55-5.13,15.03v54.54h-30.6v-54.54
		c0-6.48-1.71-11.49-5.13-15.03c-3.42-3.54-8.13-5.31-14.13-5.31c-6,0-10.71,1.77-14.13,5.31c-3.42,3.54-5.13,8.55-5.13,15.03v54.54
		h-30.78V203.32h30.78v12.6c3.12-4.2,7.2-7.53,12.24-9.99c5.04-2.46,10.74-3.69,17.1-3.69c7.56,0,14.31,1.62,20.25,4.86
		c5.94,3.24,10.59,7.86,13.95,13.86c3.48-5.52,8.22-10.02,14.22-13.5c6-3.48,12.54-5.22,19.62-5.22
		C614.81,202.24,624.74,206.02,632.12,213.58z"/>
	<path class="st1" d="M695.57,170.56v133.2h-30.78v-133.2H695.57z"/>
</g>
</svg>
