<svg version="1.1" id="Layer_1" xmlns="http://www.w3.org/2000/svg" xmlns:xlink="http://www.w3.org/1999/xlink" x="0px" y="0px"
	 viewBox="0 0 782 591" style="enable-background:new 0 0 782 591;" xml:space="preserve">
<style type="text/css">
	.st0{fill:#00F5D4;}
	.st1{fill:#FFFFFF;}
</style>
<g id="sass">
	<g>
		<path class="st0" d="M653.97,477H153.03c-29.29,0-53.03-23.74-53.03-53.03V156.03c0-29.29,23.74-53.03,53.03-53.03h500.94
			c29.29,0,53.03,23.74,53.03,53.03v267.94C707,453.26,683.26,477,653.97,477z"/>
	</g>
	<g>
		<path class="st1" d="M236.38,338.96c-7-2.86-12.59-7.11-16.77-12.73c-4.19-5.62-6.39-12.38-6.62-20.3h31.3
			c0.46,4.47,2,7.89,4.64,10.23c2.64,2.35,6.08,3.53,10.32,3.53c4.36,0,7.8-1,10.32-3.01c2.52-2,3.78-4.79,3.78-8.34
			c0-2.98-1-5.44-3.01-7.4c-2.01-1.95-4.47-3.55-7.4-4.82c-2.92-1.26-7.08-2.69-12.47-4.3c-7.8-2.41-14.16-4.82-19.09-7.22
			c-4.93-2.41-9.17-5.96-12.73-10.66c-3.56-4.7-5.33-10.84-5.33-18.4c0-11.24,4.07-20.04,12.21-26.4
			c8.14-6.36,18.75-9.55,31.82-9.55c13.3,0,24.02,3.18,32.16,9.55c8.14,6.36,12.5,15.22,13.07,26.57h-31.82
			c-0.23-3.9-1.66-6.97-4.3-9.2c-2.64-2.24-6.02-3.35-10.15-3.35c-3.56,0-6.42,0.95-8.6,2.84c-2.18,1.89-3.27,4.62-3.27,8.17
			c0,3.9,1.83,6.94,5.5,9.12c3.67,2.18,9.4,4.53,17.2,7.05c7.8,2.64,14.13,5.16,19.01,7.57c4.87,2.41,9.09,5.91,12.64,10.49
			c3.55,4.59,5.33,10.49,5.33,17.72c0,6.88-1.75,13.13-5.25,18.75c-3.5,5.62-8.57,10.09-15.22,13.42
			c-6.65,3.33-14.51,4.99-23.56,4.99C251.29,343.26,243.37,341.83,236.38,338.96z"/>
		<path class="st1" d="M321.95,267.93c3.72-7.45,8.8-13.19,15.22-17.2c6.42-4.01,13.59-6.02,21.5-6.02c6.76,0,12.7,1.38,17.8,4.13
			c5.1,2.75,9.03,6.36,11.78,10.84v-13.59h29.41v95.98h-29.41v-13.59c-2.87,4.47-6.85,8.08-11.95,10.84
			c-5.1,2.75-11.04,4.13-17.8,4.13c-7.8,0-14.91-2.03-21.33-6.11c-6.42-4.07-11.5-9.86-15.22-17.37
			c-3.73-7.51-5.59-16.19-5.59-26.06C316.36,284.04,318.22,275.38,321.95,267.93z M382.15,276.7c-4.07-4.24-9.03-6.36-14.88-6.36
			c-5.85,0-10.81,2.09-14.88,6.28c-4.07,4.19-6.11,9.95-6.11,17.29c0,7.34,2.03,13.16,6.11,17.46c4.07,4.3,9.03,6.45,14.88,6.45
			c5.85,0,10.81-2.12,14.88-6.36c4.07-4.24,6.11-10.03,6.11-17.37C388.25,286.73,386.22,280.94,382.15,276.7z"/>
		<path class="st1" d="M455.68,339.13c-6.54-2.87-11.7-6.79-15.48-11.78c-3.78-4.99-5.91-10.58-6.36-16.77h29.07
			c0.34,3.33,1.89,6.02,4.64,8.08s6.13,3.1,10.15,3.1c3.67,0,6.51-0.71,8.51-2.15c2-1.43,3.01-3.29,3.01-5.59
			c0-2.75-1.43-4.79-4.3-6.11c-2.87-1.32-7.51-2.78-13.93-4.39c-6.88-1.6-12.62-3.29-17.2-5.07c-4.59-1.78-8.54-4.58-11.87-8.43
			c-3.33-3.84-4.99-9.03-4.99-15.57c0-5.5,1.52-10.52,4.56-15.05c3.04-4.53,7.51-8.11,13.42-10.75c5.9-2.64,12.93-3.96,21.07-3.96
			c12.04,0,21.53,2.98,28.47,8.94c6.94,5.96,10.92,13.88,11.95,23.74h-27.18c-0.46-3.32-1.92-5.96-4.39-7.91
			c-2.47-1.95-5.71-2.92-9.72-2.92c-3.44,0-6.08,0.66-7.91,1.98c-1.84,1.32-2.75,3.13-2.75,5.42c0,2.75,1.46,4.82,4.39,6.19
			s7.48,2.75,13.67,4.13c7.11,1.84,12.9,3.64,17.37,5.42c4.47,1.78,8.4,4.64,11.78,8.6c3.38,3.96,5.13,9.26,5.25,15.91
			c0,5.62-1.58,10.64-4.73,15.05c-3.15,4.42-7.68,7.89-13.59,10.41c-5.91,2.52-12.76,3.78-20.55,3.78
			C469.67,343.43,462.21,342,455.68,339.13z"/>
		<path class="st1" d="M551.65,339.13c-6.54-2.87-11.7-6.79-15.48-11.78c-3.78-4.99-5.91-10.58-6.36-16.77h29.07
			c0.34,3.33,1.89,6.02,4.64,8.08s6.13,3.1,10.15,3.1c3.67,0,6.51-0.71,8.51-2.15c2-1.43,3.01-3.29,3.01-5.59
			c0-2.75-1.43-4.79-4.3-6.11c-2.87-1.32-7.51-2.78-13.93-4.39c-6.88-1.6-12.62-3.29-17.2-5.07c-4.59-1.78-8.54-4.58-11.87-8.43
			c-3.33-3.84-4.99-9.03-4.99-15.57c0-5.5,1.52-10.52,4.56-15.05c3.04-4.53,7.51-8.11,13.42-10.75c5.9-2.64,12.93-3.96,21.07-3.96
			c12.04,0,21.53,2.98,28.47,8.94c6.94,5.96,10.92,13.88,11.95,23.74h-27.18c-0.46-3.32-1.92-5.96-4.39-7.91
			c-2.47-1.95-5.71-2.92-9.72-2.92c-3.44,0-6.08,0.66-7.91,1.98c-1.84,1.32-2.75,3.13-2.75,5.42c0,2.75,1.46,4.82,4.39,6.19
			s7.48,2.75,13.67,4.13c7.11,1.84,12.9,3.64,17.37,5.42c4.47,1.78,8.4,4.64,11.78,8.6c3.38,3.96,5.13,9.26,5.25,15.91
			c0,5.62-1.58,10.64-4.73,15.05c-3.15,4.42-7.68,7.89-13.59,10.41c-5.91,2.52-12.76,3.78-20.55,3.78
			C565.64,343.43,558.19,342,551.65,339.13z"/>
	</g>
</g>
</svg>
